<mxfile host="Electron" modified="2024-05-07T15:18:57.334Z" agent="Mozilla/5.0 (Windows NT 10.0; Win64; x64) AppleWebKit/537.36 (KHTML, like Gecko) draw.io/24.2.5 Chrome/120.0.6099.109 Electron/28.1.0 Safari/537.36" etag="P1kslBG-4r8IcbNJ9L0Z" version="24.2.5" type="device">
  <diagram id="C5RBs43oDa-KdzZeNtuy" name="Page-1">
    <mxGraphModel dx="794" dy="481" grid="1" gridSize="10" guides="1" tooltips="1" connect="1" arrows="1" fold="1" page="1" pageScale="1" pageWidth="1654" pageHeight="1169" math="0" shadow="0">
      <root>
        <mxCell id="WIyWlLk6GJQsqaUBKTNV-0" />
        <mxCell id="WIyWlLk6GJQsqaUBKTNV-1" parent="WIyWlLk6GJQsqaUBKTNV-0" />
        <mxCell id="IQKzHhust3R2YVrMN2TA-7" value="" style="swimlane;startSize=0;sketch=0;fontFamily=Verdana;strokeWidth=2;" parent="WIyWlLk6GJQsqaUBKTNV-1" vertex="1">
          <mxGeometry x="130" y="80" width="228.3" height="100" as="geometry" />
        </mxCell>
        <mxCell id="IQKzHhust3R2YVrMN2TA-8" value="&lt;h1&gt;&lt;span style=&quot;background-color: initial;&quot;&gt;eCH-0266&lt;/span&gt;&lt;/h1&gt;&lt;div&gt;&lt;br&gt;&lt;/div&gt;" style="text;html=1;strokeColor=none;fillColor=none;spacing=5;spacingTop=-20;whiteSpace=wrap;overflow=hidden;rounded=0;strokeWidth=2;fontFamily=Verdana;" parent="IQKzHhust3R2YVrMN2TA-7" vertex="1">
          <mxGeometry x="15.3" width="195.7" height="80" as="geometry" />
        </mxCell>
        <mxCell id="IQKzHhust3R2YVrMN2TA-9" value="Nutztiere (Main Elements)" style="text;html=1;strokeColor=none;fillColor=none;align=left;verticalAlign=middle;whiteSpace=wrap;rounded=0;strokeWidth=2;fontFamily=Verdana;" parent="IQKzHhust3R2YVrMN2TA-7" vertex="1">
          <mxGeometry x="23.6" y="50" width="226.4" height="30" as="geometry" />
        </mxCell>
        <mxCell id="IQKzHhust3R2YVrMN2TA-10" value="For Visualisation Purposes Only&lt;br&gt;Not purely correct UML!&lt;br&gt;1-1 correspondence to XSD does &lt;br&gt;not exist.&lt;br&gt;(e.g. XSD use will be using &quot;choice,&lt;br&gt;not inheritence or interface)&lt;div&gt;&lt;br/&gt;&lt;/div&gt;" style="text;html=1;strokeColor=none;fillColor=none;align=left;verticalAlign=middle;whiteSpace=wrap;rounded=0;strokeWidth=2;fontFamily=Verdana;" parent="WIyWlLk6GJQsqaUBKTNV-1" vertex="1">
          <mxGeometry x="132" y="235.75" width="258" height="30" as="geometry" />
        </mxCell>
        <mxCell id="9pI3XiUL6uwPabYbRZ2x-18" value="" style="endArrow=classic;html=1;sketch=0;fontFamily=Verdana;curved=1;entryX=0.007;entryY=0.291;entryDx=0;entryDy=0;entryPerimeter=0;" parent="WIyWlLk6GJQsqaUBKTNV-1" source="hPNaku2SBF6PlaKbOuDH-7" target="hPNaku2SBF6PlaKbOuDH-13" edge="1">
          <mxGeometry width="50" height="50" relative="1" as="geometry">
            <mxPoint x="610" y="80" as="sourcePoint" />
            <mxPoint x="1112.2111842105264" y="110" as="targetPoint" />
          </mxGeometry>
        </mxCell>
        <mxCell id="hPNaku2SBF6PlaKbOuDH-1" value="&lt;p style=&quot;margin:0px;margin-top:4px;text-align:center;&quot;&gt;&lt;b&gt;AnimalCategoryPRIF&lt;/b&gt;&lt;/p&gt;&lt;hr size=&quot;1&quot;&gt;&lt;p style=&quot;margin:0px;margin-left:4px;&quot;&gt;&amp;nbsp;&amp;nbsp;&lt;br&gt;&lt;/p&gt;&lt;hr size=&quot;1&quot;&gt;&lt;p style=&quot;margin:0px;margin-left:4px;&quot;&gt;&lt;br&gt;&lt;/p&gt;" style="verticalAlign=top;align=left;overflow=fill;fontSize=12;fontFamily=Verdana;html=1;sketch=0;strokeWidth=2;" parent="WIyWlLk6GJQsqaUBKTNV-1" vertex="1">
          <mxGeometry x="487.9" y="420" width="272.5" height="110" as="geometry" />
        </mxCell>
        <mxCell id="hPNaku2SBF6PlaKbOuDH-2" value="&lt;p style=&quot;margin:0px;margin-top:4px;text-align:center;&quot;&gt;&lt;b&gt;&lt;i&gt;AbstractAnimalCategory&lt;/i&gt;&lt;/b&gt;&lt;/p&gt;&lt;hr size=&quot;1&quot;&gt;&lt;p style=&quot;margin:0px;margin-left:4px;&quot;&gt;&amp;nbsp;&amp;nbsp;&lt;br&gt;&lt;/p&gt;&lt;hr size=&quot;1&quot;&gt;&lt;p style=&quot;margin:0px;margin-left:4px;&quot;&gt;&lt;br&gt;&lt;/p&gt;" style="verticalAlign=top;align=left;overflow=fill;fontSize=12;fontFamily=Verdana;html=1;sketch=0;strokeWidth=2;" parent="WIyWlLk6GJQsqaUBKTNV-1" vertex="1">
          <mxGeometry x="640" y="241" width="187.5" height="110" as="geometry" />
        </mxCell>
        <mxCell id="hPNaku2SBF6PlaKbOuDH-4" value="&lt;p style=&quot;margin:0px;margin-top:4px;text-align:center;&quot;&gt;&lt;b&gt;AnimalCategoryStructural&lt;/b&gt;&lt;/p&gt;&lt;hr size=&quot;1&quot;&gt;&lt;p style=&quot;margin:0px;margin-left:4px;&quot;&gt;&amp;nbsp;&lt;br&gt;&lt;/p&gt;&lt;hr size=&quot;1&quot;&gt;&lt;p style=&quot;margin:0px;margin-left:4px;&quot;&gt;&lt;br&gt;&lt;/p&gt;" style="verticalAlign=top;align=left;overflow=fill;fontSize=12;fontFamily=Verdana;html=1;sketch=0;strokeWidth=2;" parent="WIyWlLk6GJQsqaUBKTNV-1" vertex="1">
          <mxGeometry x="855" y="420" width="190" height="110" as="geometry" />
        </mxCell>
        <mxCell id="hPNaku2SBF6PlaKbOuDH-20" style="edgeStyle=orthogonalEdgeStyle;rounded=0;orthogonalLoop=1;jettySize=auto;html=1;entryX=0.5;entryY=0;entryDx=0;entryDy=0;" parent="WIyWlLk6GJQsqaUBKTNV-1" source="hPNaku2SBF6PlaKbOuDH-5" target="hPNaku2SBF6PlaKbOuDH-13" edge="1">
          <mxGeometry relative="1" as="geometry">
            <Array as="points">
              <mxPoint x="465" y="80" />
              <mxPoint x="963" y="80" />
            </Array>
          </mxGeometry>
        </mxCell>
        <mxCell id="hPNaku2SBF6PlaKbOuDH-5" value="&lt;p style=&quot;margin:0px;margin-top:4px;text-align:center;&quot;&gt;&lt;span&gt;IndividualAnimal&lt;/span&gt;&lt;/p&gt;&lt;hr size=&quot;1&quot;&gt;&lt;p style=&quot;margin:0px;margin-left:4px;&quot;&gt;&amp;nbsp;&amp;nbsp;&lt;br&gt;&lt;/p&gt;&lt;hr size=&quot;1&quot;&gt;&lt;p style=&quot;margin:0px;margin-left:4px;&quot;&gt;&lt;br&gt;&lt;/p&gt;" style="verticalAlign=top;align=left;overflow=fill;fontSize=12;fontFamily=Verdana;html=1;sketch=0;strokeWidth=2;fontStyle=1" parent="WIyWlLk6GJQsqaUBKTNV-1" vertex="1">
          <mxGeometry x="400" y="120" width="170" height="68.75" as="geometry" />
        </mxCell>
        <mxCell id="hPNaku2SBF6PlaKbOuDH-6" value="" style="endArrow=classic;html=1;sketch=0;fontFamily=Verdana;curved=1;" parent="WIyWlLk6GJQsqaUBKTNV-1" source="hPNaku2SBF6PlaKbOuDH-7" target="hPNaku2SBF6PlaKbOuDH-2" edge="1">
          <mxGeometry width="50" height="50" relative="1" as="geometry">
            <mxPoint x="853" y="-32" as="sourcePoint" />
            <mxPoint x="1033" y="120" as="targetPoint" />
          </mxGeometry>
        </mxCell>
        <mxCell id="hPNaku2SBF6PlaKbOuDH-7" value="&lt;p style=&quot;margin:0px;margin-top:4px;text-align:center;&quot;&gt;&lt;b&gt;AnimalGroup&lt;/b&gt;&lt;/p&gt;&lt;hr size=&quot;1&quot;&gt;&lt;p style=&quot;margin:0px;margin-left:4px;&quot;&gt;&amp;nbsp;&amp;nbsp;&lt;br&gt;&lt;/p&gt;&lt;hr size=&quot;1&quot;&gt;&lt;p style=&quot;margin:0px;margin-left:4px;&quot;&gt;&lt;br&gt;&lt;/p&gt;" style="verticalAlign=top;align=left;overflow=fill;fontSize=12;fontFamily=Verdana;html=1;sketch=0;strokeWidth=2;" parent="WIyWlLk6GJQsqaUBKTNV-1" vertex="1">
          <mxGeometry x="680" y="110" width="122.5" height="70" as="geometry" />
        </mxCell>
        <mxCell id="hPNaku2SBF6PlaKbOuDH-8" value="" style="endArrow=classic;html=1;sketch=0;fontFamily=Verdana;curved=1;exitX=-0.003;exitY=0.627;exitDx=0;exitDy=0;exitPerimeter=0;" parent="WIyWlLk6GJQsqaUBKTNV-1" source="hPNaku2SBF6PlaKbOuDH-7" target="hPNaku2SBF6PlaKbOuDH-5" edge="1">
          <mxGeometry width="50" height="50" relative="1" as="geometry">
            <mxPoint x="681" y="190" as="sourcePoint" />
            <mxPoint x="681" y="250" as="targetPoint" />
          </mxGeometry>
        </mxCell>
        <mxCell id="hPNaku2SBF6PlaKbOuDH-9" value="" style="endArrow=block;html=1;sketch=0;fontFamily=Verdana;curved=1;exitX=0.478;exitY=0.003;exitDx=0;exitDy=0;exitPerimeter=0;endFill=0;" parent="WIyWlLk6GJQsqaUBKTNV-1" source="hPNaku2SBF6PlaKbOuDH-1" target="hPNaku2SBF6PlaKbOuDH-2" edge="1">
          <mxGeometry width="50" height="50" relative="1" as="geometry">
            <mxPoint x="743" y="173" as="sourcePoint" />
            <mxPoint x="890" y="350" as="targetPoint" />
          </mxGeometry>
        </mxCell>
        <mxCell id="hPNaku2SBF6PlaKbOuDH-10" value="" style="endArrow=block;html=1;sketch=0;fontFamily=Verdana;curved=1;endFill=0;entryX=0.984;entryY=0.997;entryDx=0;entryDy=0;entryPerimeter=0;" parent="WIyWlLk6GJQsqaUBKTNV-1" source="hPNaku2SBF6PlaKbOuDH-4" target="hPNaku2SBF6PlaKbOuDH-2" edge="1">
          <mxGeometry width="50" height="50" relative="1" as="geometry">
            <mxPoint x="680" y="400" as="sourcePoint" />
            <mxPoint x="681" y="360" as="targetPoint" />
          </mxGeometry>
        </mxCell>
        <mxCell id="hPNaku2SBF6PlaKbOuDH-12" value="0 - 2&amp;nbsp;" style="text;html=1;align=center;verticalAlign=middle;whiteSpace=wrap;rounded=0;" parent="WIyWlLk6GJQsqaUBKTNV-1" vertex="1">
          <mxGeometry x="709" y="213" width="100" height="30" as="geometry" />
        </mxCell>
        <mxCell id="hPNaku2SBF6PlaKbOuDH-13" value="&lt;p style=&quot;margin:0px;margin-top:4px;text-align:center;&quot;&gt;&lt;b&gt;ZoologicalAnimal&lt;/b&gt;&lt;/p&gt;&lt;br&gt;&lt;hr size=&quot;1&quot;&gt;&lt;p style=&quot;margin:0px;margin-left:4px;&quot;&gt;&amp;nbsp;+ code&lt;br&gt;&lt;/p&gt;&lt;p style=&quot;margin:0px;margin-left:4px;&quot;&gt;&amp;nbsp;+ taxonomyAuthority&lt;/p&gt;&lt;p style=&quot;margin:0px;margin-left:4px;&quot;&gt;&lt;span style=&quot;background-color: initial;&quot;&gt;&amp;nbsp;&lt;/span&gt;&lt;br&gt;&lt;/p&gt;&lt;hr size=&quot;1&quot;&gt;&lt;p style=&quot;margin:0px;margin-left:4px;&quot;&gt;&lt;br&gt;&lt;/p&gt;" style="verticalAlign=top;align=left;overflow=fill;fontSize=12;fontFamily=Verdana;html=1;sketch=0;strokeWidth=2;" parent="WIyWlLk6GJQsqaUBKTNV-1" vertex="1">
          <mxGeometry x="880" y="110" width="165" height="117" as="geometry" />
        </mxCell>
        <mxCell id="hPNaku2SBF6PlaKbOuDH-14" value="" style="endArrow=classic;html=1;sketch=0;fontFamily=Verdana;curved=1;entryX=-0.006;entryY=0.942;entryDx=0;entryDy=0;entryPerimeter=0;" parent="WIyWlLk6GJQsqaUBKTNV-1" source="hPNaku2SBF6PlaKbOuDH-2" target="hPNaku2SBF6PlaKbOuDH-13" edge="1">
          <mxGeometry width="50" height="50" relative="1" as="geometry">
            <mxPoint x="260" y="218.99" as="sourcePoint" />
            <mxPoint x="439.978906064209" y="370.99" as="targetPoint" />
          </mxGeometry>
        </mxCell>
        <mxCell id="hPNaku2SBF6PlaKbOuDH-15" value="or (choice)" style="text;html=1;align=center;verticalAlign=middle;whiteSpace=wrap;rounded=0;" parent="WIyWlLk6GJQsqaUBKTNV-1" vertex="1">
          <mxGeometry x="630" y="183" width="60" height="30" as="geometry" />
        </mxCell>
        <mxCell id="hPNaku2SBF6PlaKbOuDH-16" value="and/or" style="text;html=1;align=center;verticalAlign=middle;whiteSpace=wrap;rounded=0;" parent="WIyWlLk6GJQsqaUBKTNV-1" vertex="1">
          <mxGeometry x="770" y="380" width="39" height="30" as="geometry" />
        </mxCell>
        <mxCell id="hPNaku2SBF6PlaKbOuDH-17" value="" style="endArrow=classic;html=1;sketch=0;fontFamily=Verdana;curved=1;exitX=-0.01;exitY=0.531;exitDx=0;exitDy=0;entryX=0.997;entryY=0.537;entryDx=0;entryDy=0;entryPerimeter=0;exitPerimeter=0;" parent="WIyWlLk6GJQsqaUBKTNV-1" source="hPNaku2SBF6PlaKbOuDH-4" target="hPNaku2SBF6PlaKbOuDH-1" edge="1">
          <mxGeometry width="50" height="50" relative="1" as="geometry">
            <mxPoint x="743" y="173" as="sourcePoint" />
            <mxPoint x="890" y="250" as="targetPoint" />
          </mxGeometry>
        </mxCell>
        <mxCell id="hPNaku2SBF6PlaKbOuDH-19" value="" style="endArrow=classic;html=1;sketch=0;fontFamily=Verdana;curved=1;exitX=0.873;exitY=1.014;exitDx=0;exitDy=0;exitPerimeter=0;entryX=0.003;entryY=0.202;entryDx=0;entryDy=0;entryPerimeter=0;" parent="WIyWlLk6GJQsqaUBKTNV-1" source="hPNaku2SBF6PlaKbOuDH-5" target="hPNaku2SBF6PlaKbOuDH-2" edge="1">
          <mxGeometry width="50" height="50" relative="1" as="geometry">
            <mxPoint x="620" y="160" as="sourcePoint" />
            <mxPoint x="560" y="160" as="targetPoint" />
          </mxGeometry>
        </mxCell>
        <mxCell id="hPNaku2SBF6PlaKbOuDH-21" value="0-*" style="text;html=1;align=center;verticalAlign=middle;whiteSpace=wrap;rounded=0;" parent="WIyWlLk6GJQsqaUBKTNV-1" vertex="1">
          <mxGeometry x="530" y="120" width="100" height="30" as="geometry" />
        </mxCell>
        <mxCell id="hPNaku2SBF6PlaKbOuDH-22" value="" style="endArrow=none;dashed=1;html=1;dashPattern=1 3;strokeWidth=2;rounded=0;exitX=0.25;exitY=0;exitDx=0;exitDy=0;" parent="WIyWlLk6GJQsqaUBKTNV-1" source="hPNaku2SBF6PlaKbOuDH-15" edge="1">
          <mxGeometry width="50" height="50" relative="1" as="geometry">
            <mxPoint x="430" y="280" as="sourcePoint" />
            <mxPoint x="630" y="160" as="targetPoint" />
          </mxGeometry>
        </mxCell>
        <mxCell id="hPNaku2SBF6PlaKbOuDH-23" value="" style="endArrow=none;dashed=1;html=1;dashPattern=1 3;strokeWidth=2;rounded=0;entryX=1;entryY=0.5;entryDx=0;entryDy=0;" parent="WIyWlLk6GJQsqaUBKTNV-1" target="hPNaku2SBF6PlaKbOuDH-15" edge="1">
          <mxGeometry width="50" height="50" relative="1" as="geometry">
            <mxPoint x="730" y="200" as="sourcePoint" />
            <mxPoint x="500" y="230" as="targetPoint" />
          </mxGeometry>
        </mxCell>
        <mxCell id="hPNaku2SBF6PlaKbOuDH-24" value="" style="endArrow=none;dashed=1;html=1;dashPattern=1 3;strokeWidth=2;rounded=0;entryX=0;entryY=0.5;entryDx=0;entryDy=0;" parent="WIyWlLk6GJQsqaUBKTNV-1" target="hPNaku2SBF6PlaKbOuDH-16" edge="1">
          <mxGeometry width="50" height="50" relative="1" as="geometry">
            <mxPoint x="660" y="380" as="sourcePoint" />
            <mxPoint x="430" y="370" as="targetPoint" />
          </mxGeometry>
        </mxCell>
        <mxCell id="hPNaku2SBF6PlaKbOuDH-25" value="" style="endArrow=none;dashed=1;html=1;dashPattern=1 3;strokeWidth=2;rounded=0;entryX=1;entryY=0.5;entryDx=0;entryDy=0;" parent="WIyWlLk6GJQsqaUBKTNV-1" target="hPNaku2SBF6PlaKbOuDH-16" edge="1">
          <mxGeometry width="50" height="50" relative="1" as="geometry">
            <mxPoint x="840" y="375" as="sourcePoint" />
            <mxPoint x="800" y="470" as="targetPoint" />
          </mxGeometry>
        </mxCell>
      </root>
    </mxGraphModel>
  </diagram>
</mxfile>
